<?xml version="1.0" encoding="iso-8859-1"?>
<!-- Uploaded to: SVG Repo, www.svgrepo.com, Generator: SVG Repo Mixer Tools -->
<svg height="800px" width="800px" version="1.1" id="Layer_1" xmlns="http://www.w3.org/2000/svg" xmlns:xlink="http://www.w3.org/1999/xlink" 
	 viewBox="0 0 512 512" xml:space="preserve">
<path style="fill:#FFCD54;" d="M0,256.006C0,397.402,114.606,512.004,255.996,512C397.394,512.004,512,397.402,512,256.006
	C512.009,114.61,397.394,0,255.996,0C114.606,0,0,114.614,0,256.006z"/>
<path style="fill:#F4BA41;" d="M501.433,328.821L261.008,88.397c-0.654-0.656-1.438-1.175-2.308-1.536
	c-1.727-0.714-3.671-0.714-5.399,0c-0.869,0.361-1.654,0.88-2.308,1.536l-56.55,56.55c-2.762,2.762-2.762,7.235,0,9.998
	c0.29,0.29,0.657,0.423,0.98,0.652c0.228,0.323,53.308,53.465,53.508,53.626v124.542c0,2.378,1.247,4.375,3.043,5.657
	c0.457,0.641,71.94,72.017,72.016,72.112H93.391c-3.907,0-7.07,3.162-7.07,7.07c0,2.379,1.248,4.377,3.045,5.659
	c0.457,0.641,66.275,66.459,66.915,66.915c0.316,0.443,0.729,0.777,1.127,1.127c30.347,12.674,63.643,19.696,98.587,19.695
	C372.087,512.003,470.061,434.728,501.433,328.821z"/>
<g>
	<path style="fill:#F4F6F9;" d="M204.439,154.945l44.491-44.491v223.311c0,3.908,3.163,7.07,7.07,7.07c3.907,0,7.07-3.163,7.07-7.07
		V110.454l44.491,44.491c1.381,1.381,3.189,2.071,4.998,2.071s3.618-0.69,4.998-2.071c2.762-2.762,2.762-7.235,0-9.997l-56.55-56.55
		c-0.654-0.656-1.438-1.177-2.308-1.536c-1.727-0.714-3.671-0.714-5.398,0c-0.869,0.359-1.654,0.88-2.308,1.536l-56.55,56.55
		c-2.762,2.762-2.762,7.235,0,9.997C197.203,157.707,201.678,157.707,204.439,154.945z"/>
	<path style="fill:#F4F6F9;" d="M418.608,411.534H93.392c-3.908,0-7.07,3.163-7.07,7.07s3.163,7.07,7.07,7.07h325.217
		c3.908,0,7.07-3.163,7.07-7.07S422.516,411.534,418.608,411.534z"/>
</g>
</svg>